<svg width="322" height="140" viewBox="0 0 322 140" fill="none" xmlns="http://www.w3.org/2000/svg">
<path d="M177.328 91.9128C172.226 96.6046 165.967 98.9482 158.551 98.9482C151.133 98.9482 144.873 96.6195 139.772 91.9592C134.67 87.3017 132.119 81.2322 132.119 73.7528V36.3869H145.24V73.1836C145.24 77.1764 146.524 80.4563 149.09 83.0233C151.657 85.5894 154.81 86.8734 158.551 86.8734C162.29 86.8734 165.428 85.5894 167.963 83.0233C170.498 80.4563 171.767 77.1764 171.767 73.1836V36.3869H184.983V73.7528C184.983 81.1692 182.43 87.2219 177.328 91.9128Z" fill="white"/>
<path d="M197.342 97.9976V36.3874H211.876L227.958 60.616C229.254 62.5711 230.774 64.86 232.517 67.4836C234.259 70.1071 235.676 72.2412 236.768 73.8858L238.511 76.5112V36.3874H251.822V97.9976H237.751L222.313 74.9445C220.653 72.4721 218.838 69.7613 216.866 66.8115C214.893 63.8644 213.325 61.5217 212.161 59.7853L210.653 57.21V97.9976H197.342Z" fill="white"/>
<path d="M262.281 67.1929C262.281 58.3191 265.37 50.8072 271.55 44.6581C277.73 38.5117 285.511 35.4367 294.891 35.4367C302.688 35.4367 309.63 37.7506 315.715 42.3766L307.918 51.5053C304.432 48.8418 300.122 47.5115 294.987 47.5115C289.599 47.5115 285.115 49.4454 281.534 53.3112C277.952 57.1779 276.162 61.8048 276.162 67.1929C276.162 72.6449 277.952 77.2876 281.534 81.1209C285.115 84.9562 289.599 86.8724 294.987 86.8724C300.439 86.8724 304.97 84.8764 308.583 80.8845V71.7558H298.79V60.7267H321.419V86.0176C318.694 90.0754 314.985 93.244 310.295 95.5255C305.603 97.807 300.47 98.9473 294.891 98.9473C285.511 98.9473 277.73 95.8908 271.55 89.7731C265.37 83.6574 262.281 76.1297 262.281 67.1929Z" fill="white"/>
<path d="M75.7001 4.40181H99.1267V8.9657V26.2896H4.40961V8.9657V4.40181H27.8363V8.9657H40.0548V4.40181H63.4815V8.9657H75.7001V4.40181ZM99.1267 101.704C99.1267 104.454 98.5529 107.175 97.4423 109.692C94.3431 116.71 84.4144 121.339 76.8802 122.788C61.7025 125.706 54.6847 127.971 51.7682 132.215C48.8517 127.971 41.8339 125.706 26.6561 122.788C19.122 121.339 9.19321 116.71 6.09407 109.692C4.98346 107.175 4.40961 104.454 4.40961 101.704V27.3279H51.7626H99.1267V101.704ZM74.2177 7.48241H64.9546V2.9315H38.5845V7.48241H29.3205V2.9315H2.93188V101.704C2.93188 104.671 3.54375 107.567 4.74892 110.283C6.27763 113.773 9.47967 116.993 13.9759 119.601C17.6461 121.742 22.1608 123.433 26.3706 124.242C41.984 127.246 48.0813 129.459 50.5463 133.057L51.7691 134.819L52.9919 133.057C55.4569 129.459 61.5551 127.246 77.1685 124.242C81.3773 123.433 85.8921 121.742 89.5614 119.601C94.0585 116.993 97.2606 113.773 98.7893 110.283C99.9944 107.567 100.606 104.671 100.606 101.704V2.9315H74.2177V7.48241Z" fill="white"/>
<path d="M4.40942 27.3284V101.704C4.40942 104.455 4.98327 107.176 6.09481 109.692C9.19395 116.71 19.1218 121.34 26.6559 122.788C41.8337 125.706 48.8515 127.971 51.768 132.214C54.6845 127.971 61.7023 125.706 76.881 122.788C84.4142 121.34 94.3429 116.71 97.4421 109.692C98.5536 107.176 99.1275 104.455 99.1275 101.704V27.3284H51.7633H4.40942Z" fill="#86B7BC"/>
<path d="M100.607 101.703C100.607 104.672 99.9948 107.568 98.7897 110.283C97.2609 113.774 94.0589 116.993 89.5618 119.601C85.8925 121.742 81.3777 123.433 77.168 124.242C61.5545 127.247 55.4564 129.458 52.9923 133.056L51.7695 134.82L50.5458 133.056C48.0817 129.458 41.9835 127.247 26.3701 124.242C22.1612 123.433 17.6465 121.742 13.9763 119.601C9.47913 116.993 6.27801 113.774 4.7493 110.283C3.54413 107.568 2.93227 104.672 2.93227 101.703V2.93135H29.3199V7.48225H38.584V2.93135H64.954V7.48225H74.2181V2.93135H100.607V101.703ZM71.2858 -4.78121e-08V4.55092H67.8863V-4.78121e-08H35.6517V4.55092H32.2522V-4.78121e-08H0V101.703C0 105.085 0.683241 108.377 2.06826 111.471C3.84913 115.518 7.46557 119.206 12.5023 122.138C16.4413 124.44 21.2981 126.257 25.8305 127.12C40.185 129.873 46.2294 131.941 48.1354 134.711L49.3582 136.474L51.7695 140L54.1798 136.492L55.4026 134.711C57.3096 131.941 63.3539 129.873 77.7084 127.12C82.2408 126.257 87.0977 124.44 91.0367 122.138C96.0734 119.206 99.6889 115.518 101.47 111.471C102.837 108.377 103.538 105.085 103.538 101.703V-4.78121e-08H71.2858Z" fill="#86B7BC"/>
<path d="M63.482 4.4018H40.0553V8.96569H27.8368V4.4018H4.40918V8.96569V26.2896H99.1272V8.96569V4.4018H75.7006V8.96569H63.482V4.4018Z" fill="#0E6A9A"/>
<path d="M15.7032 13.6165L13.6711 18.4909C13.5089 18.9053 13.2753 19.5348 13.0046 20.3979L12.3213 18.4909L10.2892 13.6165H8.72437L12.2676 22.1611H13.7425L17.2681 13.6165H15.7032Z" fill="white"/>
<path d="M25.4169 20.8299V18.312H30.22V17.0169H25.4169V14.9301H30.5073V13.6165H23.8882V22.1426H30.6872V20.8299H25.4169Z" fill="white"/>
<path d="M42.7751 18.2392C42.3978 18.6165 41.8935 18.7973 41.264 18.7973H39.1234V14.9296H41.2825C41.8935 14.9296 42.3978 15.1095 42.7751 15.4868C43.1524 15.8465 43.3332 16.3146 43.3332 16.8718C43.3332 17.4113 43.1524 17.8795 42.7751 18.2392ZM43.1886 19.6604C43.7467 19.3906 44.1601 19.0124 44.4661 18.509C44.7896 18.0056 44.9333 17.4475 44.9333 16.8718C44.9333 15.9188 44.6097 15.1271 43.9617 14.5338C43.3147 13.9219 42.3793 13.616 41.1741 13.616H37.5947V22.1421H39.1234V20.11H40.3471C40.9942 20.11 41.4439 20.11 41.7136 20.0914L43.1886 22.1421H45.0594L43.1886 19.6604Z" fill="white"/>
<path d="M52.0393 22.1426H53.568V13.6164H52.0393V22.1426Z" fill="white"/>
<path d="M60.2954 13.6165V14.9292H63.2991V22.1426H64.8287V14.9292H67.8324V13.6165H60.2954Z" fill="white"/>
<path d="M75.4236 19.4625L76.3952 17.3043C76.6649 16.7286 76.9347 16.0444 77.2221 15.2536L77.3482 15.5772C77.4205 15.7932 77.528 16.063 77.6893 16.4041C77.8339 16.7462 77.96 17.0345 78.0676 17.2857L79.0391 19.4625H75.4236ZM77.9415 13.6165H76.5027L72.6536 22.1426H74.1999L74.8655 20.6676H79.5787L80.2257 22.1426H81.7915L77.9415 13.6165Z" fill="white"/>
<path d="M94.5444 18.6349C94.3831 18.329 94.131 18.0769 93.8074 17.8794C93.4839 17.6819 93.1409 17.5373 92.7997 17.4122C92.4576 17.3037 92.0627 17.1776 91.6122 17.0339C91.0012 16.8902 90.5331 16.728 90.2633 16.5667C89.975 16.4221 89.8313 16.1884 89.8313 15.8825C89.8313 15.6313 89.9212 15.4329 90.1011 15.2716C90.2809 15.1094 90.4969 15.0018 90.7129 14.9471C90.9289 14.8934 91.1449 14.8572 91.3609 14.8572C92.2416 14.8572 93.0509 15.0917 93.8074 15.5775L94.4007 14.4076C93.5006 13.7957 92.4762 13.4722 91.3609 13.4722C90.5154 13.4722 89.7951 13.6882 89.1842 14.1202C88.5723 14.5522 88.285 15.127 88.285 15.8825C88.285 16.207 88.3387 16.512 88.4648 16.7641C88.59 17.0339 88.7522 17.2499 88.932 17.4122C89.1119 17.592 89.364 17.7357 89.67 17.8794C89.975 18.0231 90.2633 18.1316 90.5154 18.2029C90.7667 18.2752 91.0726 18.3652 91.4508 18.4727C91.8282 18.5812 92.1155 18.6526 92.3139 18.7073C92.5299 18.7786 92.7274 18.8871 92.9258 19.0484C93.1232 19.2283 93.2132 19.4443 93.2132 19.6779C93.2132 20.0561 93.0333 20.3435 92.656 20.5595C92.2963 20.7755 91.8643 20.9016 91.3609 20.9016C90.2994 20.9016 89.364 20.5595 88.5371 19.8939L87.9429 21.0453C88.8245 21.8731 89.9574 22.2681 91.3609 22.2681C92.2778 22.2681 93.0871 22.053 93.7713 21.6034C94.4545 21.1528 94.7966 20.5234 94.7966 19.6779C94.7966 19.283 94.7243 18.9409 94.5444 18.6349Z" fill="white"/>
<path d="M63.3909 56.5004L74.9262 63.3662L86.5617 56.6923L74.9327 49.3047L63.3909 56.5004Z" fill="#1A5980"/>
<path d="M74.9267 63.3668L74.9026 76.8545L86.5612 70.1083V56.6929L74.9267 63.3668Z" fill="#0E6A9A"/>
<path d="M40.3078 56.3319L28.6353 63.1865L17.0007 56.5127L28.5991 49.2751L40.3078 56.3319Z" fill="#058BAC"/>
<path d="M28.6353 63.1864V76.6704L17.0007 69.9279V56.5125L28.6353 63.1864Z" fill="#1A5980"/>
<path d="M51.6797 76.7416L63.3893 83.5156L74.9042 76.8501L63.3912 69.9454L51.6797 76.7416Z" fill="#1A5980"/>
<path d="M63.3892 83.5155L63.3947 97.0811L74.9041 90.2663V76.85L63.3892 83.5155Z" fill="#0E6A9A"/>
<path d="M51.6798 76.7415L63.3894 83.5155L63.395 97.0811L51.677 90.5361L51.6798 76.7415Z" fill="#CDDFF0"/>
<path d="M51.6736 103.717L51.6754 117.203L63.3591 110.462L63.3915 97.0786L51.6736 103.717Z" fill="#CDDFF0"/>
<path d="M40.3143 96.8826L51.6735 103.717L51.6753 117.204L40.2698 110.71L40.3143 96.8826Z" fill="#116D9A"/>
<path d="M51.6796 49.492L51.6777 36.0182L63.3595 42.7356L63.3957 56.5015L51.6796 49.492Z" fill="#116D9A"/>
<path d="M40.318 56.3315L51.68 49.4917L51.6781 36.0179L40.3115 42.4656L40.318 56.3315Z" fill="#2B7B9A"/>
<path d="M28.6353 76.6703L40.3078 83.5342L51.68 76.7417L40.3115 69.9436L28.6353 76.6703Z" fill="#1A5980"/>
<path d="M40.3074 83.5341L40.3157 96.8809L51.6795 90.5361V76.7415L40.3074 83.5341Z" fill="#0E6A9A"/>
<path d="M28.6353 76.6702L40.3078 83.5341L40.3162 96.8809L28.627 90.0828L28.6353 76.6702Z" fill="#CDDFF0"/>
<path d="M40.3179 56.3314L51.6798 63.187L63.3895 56.5011L51.6798 49.4916L40.3179 56.3314Z" fill="#1A5980"/>
<path d="M51.6797 63.1872V76.7417L63.393 69.9455L63.3939 56.5032L51.6797 63.1872Z" fill="#0E6A9A"/>
<path d="M40.3179 56.3312L51.6799 63.1868V76.7412L40.3142 69.9431L40.3179 56.3312Z" fill="#CDDFF0"/>
<path d="M74.9041 76.8504V90.2667L86.9446 97.5645V84.1713L74.9041 76.8504Z" fill="#1C5A80"/>
<path d="M86.9447 97.5651L74.8884 104.26L63.3948 97.0811L74.9042 90.2673L86.9447 97.5651Z" fill="#058BAC"/>
<path d="M28.6324 76.6702L28.6268 90.0847L16.5918 97.3843V83.9911L28.6324 76.6702Z" fill="#175980"/>
<path d="M16.5918 97.3844L28.6324 104.271L40.316 96.8865L28.6268 90.0847L16.5918 97.3844Z" fill="#2F4767"/>
</svg>
