<svg width="606" height="140" viewBox="0 0 606 140" fill="none" xmlns="http://www.w3.org/2000/svg">
<path d="M177.337 91.8664C172.235 96.559 165.975 98.9014 158.558 98.9014C151.142 98.9014 144.882 96.5735 139.779 91.913C134.677 87.2543 132.126 81.186 132.126 73.706V36.3382H145.248V73.136C145.248 77.1295 146.53 80.4094 149.099 82.9758C151.666 85.5431 154.818 86.8268 158.558 86.8268C162.299 86.8268 165.436 85.5431 167.972 82.9758C170.507 80.4094 171.775 77.1295 171.775 73.136V36.3382H184.992V73.706C184.992 81.123 182.44 87.1758 177.337 91.8664Z" fill="black"/>
<path d="M197.352 97.9512V36.3381H211.887L227.969 60.5678C229.266 62.5234 230.786 64.8124 232.528 67.436C234.271 70.0596 235.689 72.1935 236.78 73.8388L238.523 76.4634V36.3381H251.834V97.9512H237.763L222.323 74.8966C220.666 72.4252 218.85 69.7134 216.877 66.7641C214.904 63.8167 213.335 61.4734 212.172 59.7369L210.663 57.1618V97.9512H197.352Z" fill="black"/>
<path d="M265.146 36.3381H278.457V97.9512H265.146V36.3381Z" fill="black"/>
<path d="M291.769 97.9512V36.3381H306.304L322.386 60.5678C323.683 62.5234 325.203 64.8124 326.945 67.436C328.688 70.0596 330.106 72.1935 331.197 73.8388L332.94 76.4634V36.3381H346.251V97.9512H332.18L316.74 74.8966C315.083 72.4252 313.267 69.7134 311.294 66.7641C309.321 63.8167 307.752 61.4734 306.589 59.7369L305.08 57.1618V97.9512H291.769Z" fill="black"/>
<path d="M370.592 67.1449C370.592 72.5976 372.382 77.2562 375.964 81.1217C379.545 84.9882 384.03 86.9205 389.419 86.9205C394.743 86.9205 399.179 84.9882 402.729 81.1217C406.28 77.2562 408.055 72.5976 408.055 67.1449C408.055 61.7572 406.28 57.1286 402.729 53.2631C399.179 49.3966 394.743 47.4624 389.419 47.4624C384.03 47.4624 379.545 49.3966 375.964 53.2631C372.382 57.1286 370.592 61.7572 370.592 67.1449ZM356.71 67.1449C356.71 58.2707 359.8 50.7588 365.98 44.609C372.161 38.4631 379.941 35.3878 389.324 35.3878C398.704 35.3878 406.485 38.4631 412.666 44.609C418.847 50.7588 421.937 58.2707 421.937 67.1449C421.937 76.0821 418.847 83.626 412.666 89.7739C406.485 95.9236 398.704 98.9971 389.324 98.9971C379.941 98.9971 372.161 95.9236 365.98 89.7739C359.8 83.626 356.71 76.0821 356.71 67.1449Z" fill="black"/>
<path d="M445.707 72.4689H459.304C463.297 72.4689 466.482 71.2967 468.86 68.9524C471.237 66.607 472.425 63.6587 472.425 60.1083C472.425 56.5597 471.251 53.6124 468.908 51.2661C466.562 48.9217 463.392 47.7476 459.399 47.7476H445.707V72.4689ZM432.396 97.9512V36.3381H458.734C467.481 36.3381 474.264 38.5729 479.081 43.0415C483.898 47.5101 486.307 53.2003 486.307 60.1083C486.307 64.2918 485.293 68.1292 483.265 71.6137C481.235 75.1002 478.382 77.9215 474.707 80.0758L487.543 97.9512H471.284L461.776 83.6893C459.684 83.8163 456.704 83.8793 452.838 83.8793H445.707V97.9512H432.396Z" fill="black"/>
<path d="M512.74 97.9512V47.7476H491.823V36.3381H546.971V47.7476H526.052V97.9512H512.74Z" fill="black"/>
<path d="M555.528 97.9512V36.3381H604.115V47.7476H568.838V60.2983H602.308V71.6137H568.838V86.5407H605.351V97.9512H555.528Z" fill="black"/>
<path d="M75.7134 4.39942H99.1412V8.96302V26.2886H4.41952V8.96302V4.39942H27.8474V8.96302H40.0664V4.39942H63.4943V8.96302H75.7134V4.39942ZM99.1412 101.706C99.1412 104.456 98.5673 107.178 97.4552 109.694C94.3566 116.712 84.4276 121.343 76.8933 122.791C61.7152 125.709 54.6967 127.975 51.7794 132.218C48.864 127.975 41.8455 125.709 26.6665 122.791C19.1322 121.343 9.20321 116.712 6.10457 109.694C4.99349 107.178 4.41952 104.456 4.41952 101.706V27.327H51.7746H99.1412V101.706ZM74.2465 7.49514H64.9767V2.92669H38.5869V7.49514H29.3172V2.92669H2.94873V101.701C2.94873 104.673 3.54791 107.578 4.74528 110.283C6.29751 113.765 9.49116 116.981 13.9704 119.598C17.6517 121.749 22.1766 123.434 26.3892 124.233C42.0016 127.248 48.1 129.467 50.5617 133.059L51.7813 134.833L53.001 133.059C55.4627 129.467 61.562 127.248 77.1735 124.233C81.3871 123.434 85.9119 121.749 89.57 119.598C94.0725 116.981 97.2652 113.765 98.7961 110.283C100.016 107.578 100.614 104.673 100.614 101.701V2.92669H74.2465V7.49514Z" fill="white"/>
<path d="M4.41919 27.3271V101.706C4.41919 104.457 4.99315 107.178 6.10424 109.694C9.20288 116.712 19.1319 121.343 26.6671 122.791C41.8452 125.709 48.8637 127.974 51.78 132.218C54.6964 127.974 61.7149 125.709 76.8939 122.791C84.4272 121.343 94.3572 116.712 97.4558 109.694C98.5669 107.178 99.1409 104.457 99.1409 101.706V27.3271H51.7752H4.41919Z" fill="#E86220"/>
<path d="M100.615 101.701C100.615 104.673 100.015 107.578 98.7967 110.284C97.2658 113.765 94.0721 116.981 89.5706 119.598C85.9115 121.748 81.3877 123.435 77.1741 124.232C61.5616 127.249 55.4633 129.466 53.0016 133.059L51.7819 134.833L50.5623 133.059C48.1006 129.466 42.0022 127.249 26.3898 124.232C22.1762 123.435 17.6523 121.748 13.971 119.598C9.49079 116.981 6.29713 113.765 4.74491 110.284C3.54753 107.578 2.94933 104.673 2.94933 101.701V2.92703H29.3168V7.49549H38.5866V2.92703H64.9773V7.49549H74.2471V2.92703H100.615V101.701ZM71.2968 2.61996e-06V4.54617H67.9043V2.61996e-06H35.6595V4.54617H32.2661V2.61996e-06H0V101.701C0 105.095 0.709699 108.377 2.0622 111.481C3.85875 115.517 7.47318 119.221 12.507 122.148C16.455 124.432 21.3114 126.251 25.8352 127.116C40.1834 129.888 46.2372 131.95 48.1452 134.722L49.3649 136.496L51.7819 140L54.199 136.496L55.4187 134.722C57.3257 131.95 63.3805 129.888 77.7287 127.116C82.2525 126.251 87.1089 124.432 91.0569 122.148C96.0907 119.221 99.7051 115.517 101.502 111.481C102.854 108.377 103.542 105.095 103.542 101.701V2.61996e-06H71.2968Z" fill="#E86220"/>
<path d="M63.4942 4.39936H40.0664V8.96297H27.8473V4.39936H4.41943V8.96297V26.2886H99.1411V8.96297V4.39936H75.7133V8.96297H63.4942V4.39936Z" fill="#ED8453"/>
<path d="M15.7226 13.6156L13.6827 18.472C13.5052 18.8937 13.2832 19.5365 12.9953 20.3791L12.3302 18.472L10.2893 13.6156H8.73706L12.2633 22.1533H13.7486L17.2748 13.6156H15.7226Z" fill="white"/>
<path d="M25.4139 20.8235V18.3172H30.2257V17.0093H25.4139V14.9248H30.5146V13.6159H23.9062V22.1323H30.692V20.8235H25.4139Z" fill="white"/>
<path d="M42.7781 18.2513C42.4009 18.6061 41.9132 18.8058 41.2695 18.8058H39.119V14.9248H41.2918C41.9132 14.9248 42.4009 15.1022 42.7781 15.4794C43.1552 15.8565 43.3549 16.2996 43.3549 16.8542C43.3549 17.4087 43.1552 17.8741 42.7781 18.2513ZM43.1998 19.6484C43.7544 19.4041 44.1752 19.0056 44.4854 18.4956C44.7966 18.0069 44.9518 17.4533 44.9518 16.8542C44.9518 15.9224 44.6182 15.1245 43.9754 14.5253C43.3326 13.9048 42.4009 13.6159 41.1812 13.6159H37.5891V22.1323H39.119V20.1138H40.361C41.0038 20.1138 41.4702 20.1138 41.7135 20.0924L43.1998 22.1323H45.0623L43.1998 19.6484Z" fill="white"/>
<path d="M52.0481 22.1323H53.578V13.6169H52.0481V22.1323Z" fill="white"/>
<path d="M60.3198 13.6159V14.9248H63.3138V22.1313H64.8437V14.9248H67.8376V13.6159H60.3198Z" fill="white"/>
<path d="M75.4223 19.4486L76.4199 17.2972C76.6866 16.7213 76.9522 16.0339 77.2402 15.2573L77.3517 15.5899C77.4399 15.7896 77.5514 16.0553 77.7065 16.4101C77.8393 16.7427 77.9722 17.0316 78.0837 17.2749L79.059 19.4486H75.4223ZM77.9499 13.6159H76.5091L72.6504 22.1323H74.2249L74.89 20.6683H79.5913L80.2341 22.1323H81.7863L77.9499 13.6159Z" fill="white"/>
<path d="M94.5603 18.6279C94.3828 18.3177 94.1385 18.0733 93.806 17.8736C93.4957 17.6739 93.1632 17.5188 92.8083 17.4082C92.4758 17.2977 92.0763 17.1862 91.6332 17.0311C91.0118 16.876 90.5464 16.7208 90.2807 16.5657C89.9918 16.4106 89.8367 16.1886 89.8367 15.8783C89.8367 15.634 89.9259 15.4343 90.1246 15.2791C90.3021 15.1017 90.5018 15.0135 90.7238 14.9466C90.9458 14.8797 91.1669 14.8574 91.3889 14.8574C92.2537 14.8574 93.0749 15.1017 93.8283 15.5671L94.4051 14.392C93.4957 13.7938 92.4981 13.4826 91.3889 13.4826C90.5241 13.4826 89.7921 13.6823 89.1939 14.1264C88.5947 14.5471 88.2845 15.124 88.2845 15.8783C88.2845 16.2109 88.3504 16.4988 88.4842 16.7654C88.617 17.0311 88.7721 17.2531 88.9496 17.4082C89.127 17.5857 89.3713 17.7408 89.6816 17.8736C89.9918 18.0287 90.2807 18.1402 90.5241 18.2062C90.7907 18.2731 91.101 18.3623 91.4558 18.4728C91.833 18.561 92.1209 18.6502 92.3429 18.7161C92.5427 18.7607 92.7414 18.8936 92.9411 19.0497C93.1186 19.2271 93.2301 19.4258 93.2301 19.6702C93.2301 20.0473 93.0526 20.3353 92.6755 20.5573C92.2983 20.7793 91.8766 20.8898 91.3889 20.8898C90.3244 20.8898 89.3713 20.5573 88.5501 19.8922L87.9519 21.045C88.839 21.8662 89.9695 22.2646 91.3666 22.2646C92.2983 22.2646 93.0972 22.0426 93.7837 21.5995C94.4711 21.1565 94.8269 20.5127 94.8269 19.6702C94.8269 19.293 94.7377 18.9382 94.5603 18.6279Z" fill="white"/>
<path d="M63.0849 43.7094C57.6119 45.2635 53.3343 49.5411 51.7801 55.0142C50.2269 49.5411 45.9493 45.2635 40.4763 43.7094C45.9493 42.1552 50.2269 37.8776 51.7801 32.4046C53.3343 37.8776 57.6119 42.1552 63.0849 43.7094Z" fill="white"/>
<path d="M46.6249 108.492V63.2292L27.178 53.3555C27.178 53.3555 27.178 90.545 27.178 109.055C33.8736 114.774 42.0642 117.79 50.3373 118.104C50.3392 116.605 50.3421 114.896 50.3441 113.036C48.2227 112.611 46.6249 110.738 46.6249 108.492Z" fill="#07249B"/>
<path d="M56.9357 63.2292V108.492C56.9357 110.738 55.3379 112.611 53.2166 113.036C53.2185 114.897 53.2214 116.605 53.2233 118.104C61.4964 117.79 69.687 114.774 76.3826 109.055V53.3555L56.9357 63.2292Z" fill="#07249B"/>
</svg>
