<svg width="662" height="140" viewBox="0 0 662 140" fill="none" xmlns="http://www.w3.org/2000/svg">
<path d="M177.325 91.9118C172.223 96.6031 165.964 98.9482 158.548 98.9482C151.133 98.9482 144.873 96.6182 139.771 91.9601C134.668 87.3009 132.118 81.2315 132.118 73.7528V36.3893H145.238V73.1828C145.238 77.1765 146.522 80.4555 149.089 83.0228C151.656 85.5891 154.808 86.8737 158.548 86.8737C162.287 86.8737 165.425 85.5891 167.961 83.0228C170.495 80.4555 171.764 77.1765 171.764 73.1828V36.3893H184.979V73.7528C184.979 81.1692 182.427 87.2215 177.325 91.9118Z" fill="white"/>
<path d="M197.338 97.9966V36.3895H211.871L227.952 60.616C229.249 62.5721 230.769 64.861 232.511 67.4846C234.254 70.1082 235.671 72.2422 236.763 73.8857L238.505 76.5113V36.3895H251.815V97.9966H237.745L222.307 74.9442C220.649 72.4724 218.834 69.7614 216.86 66.8121C214.888 63.8658 213.319 61.5227 212.156 59.7857L210.648 57.2114V97.9966H197.338Z" fill="white"/>
<path d="M265.125 36.3895H278.435V97.9966H265.125V36.3895Z" fill="white"/>
<path d="M291.746 97.9966V36.3895H306.278L322.359 60.616C323.656 62.5721 325.176 64.861 326.918 67.4846C328.661 70.1082 330.078 72.2422 331.17 73.8857L332.912 76.5113V36.3895H346.223V97.9966H332.152L316.714 74.9442C315.056 72.4724 313.241 69.7614 311.268 66.8121C309.295 63.8658 307.726 61.5227 306.563 59.7857L305.056 57.2114V97.9966H291.746Z" fill="white"/>
<path d="M353.352 97.9966L380.025 36.3895H393.379L419.347 97.9966H406.594L402.507 88.2039H371.257L367.038 97.9966H353.352ZM375.765 77.7457H398.141L393.337 66.2411L386.746 50.4514C384.583 56.7942 382.546 62.1218 380.639 66.4321L375.765 77.7457Z" fill="white"/>
<path d="M424.467 90.5819L429.221 80.3127C435.558 84.8774 442.341 87.1592 449.566 87.1592C452.799 87.1592 455.587 86.4455 457.934 85.0191C460.277 83.5927 461.451 81.8346 461.451 79.7428C461.451 77.7153 460.453 76.1632 458.456 75.0847C456.459 74.0081 453.654 73.0883 450.042 72.3264C447.38 71.6941 445.082 71.1081 443.149 70.5683C441.215 70.0305 439.139 69.2374 436.922 68.192C434.702 67.1456 432.896 65.9896 431.503 64.721C430.107 63.4534 428.935 61.8381 427.984 59.8729C427.034 57.9077 426.559 55.6892 426.559 53.2184C426.559 47.5762 428.808 43.2036 433.309 40.0975C437.808 36.9924 443.227 35.4394 449.566 35.4394C457.995 35.4394 465.507 37.6257 472.099 41.9983L467.25 52.2665C461.799 48.9081 455.904 47.2284 449.566 47.2284C447.284 47.2284 445.113 47.6717 443.055 48.5583C440.994 49.4469 439.964 50.9688 439.964 53.1229C439.964 54.9615 440.882 56.3708 442.721 57.3528C444.559 58.3369 447.442 59.2396 451.373 60.0629C467.028 63.5499 474.856 70.1099 474.856 79.7428C474.856 85.956 472.336 90.7096 467.298 94.0036C462.259 97.3007 456.317 98.9482 449.472 98.9482C439.52 98.9482 431.185 96.1598 424.467 90.5819Z" fill="white"/>
<path d="M482.461 90.5819L487.215 80.3127C493.551 84.8774 500.334 87.1592 507.56 87.1592C510.793 87.1592 513.581 86.4455 515.927 85.0191C518.27 83.5927 519.444 81.8346 519.444 79.7428C519.444 77.7153 518.446 76.1632 516.45 75.0847C514.453 74.0081 511.648 73.0883 508.035 72.3264C505.374 71.6941 503.076 71.1081 501.143 70.5683C499.209 70.0305 497.133 69.2374 494.915 68.192C492.696 67.1456 490.89 65.9896 489.496 64.721C488.101 63.4534 486.929 61.8381 485.978 59.8729C485.027 57.9077 484.553 55.6892 484.553 53.2184C484.553 47.5762 486.802 43.2036 491.303 40.0975C495.802 36.9924 501.221 35.4394 507.56 35.4394C515.989 35.4394 523.5 37.6257 530.093 41.9983L525.243 52.2665C519.792 48.9081 513.898 47.2284 507.56 47.2284C505.278 47.2284 503.107 47.6717 501.048 48.5583C498.988 49.4469 497.957 50.9688 497.957 53.1229C497.957 54.9615 498.876 56.3708 500.714 57.3528C502.553 58.3369 505.436 59.2396 509.366 60.0629C525.021 63.5499 532.85 70.1099 532.85 79.7428C532.85 85.956 530.33 90.7096 525.292 94.0036C520.253 97.3007 514.311 98.9482 507.465 98.9482C497.514 98.9482 489.179 96.1598 482.461 90.5819Z" fill="white"/>
<path d="M537.127 97.9966L563.8 36.3895H577.153L603.121 97.9966H590.368L586.281 88.2039H555.031L550.813 97.9966H537.127ZM559.54 77.7457H581.916L577.112 66.2411L570.521 50.4514C568.357 56.7942 566.32 62.1218 564.413 66.4321L559.54 77.7457Z" fill="white"/>
<path d="M653.45 91.9123C648.348 96.6036 642.089 98.9487 634.673 98.9487C627.258 98.9487 620.998 96.6187 615.896 91.9605C610.793 87.3014 608.243 81.232 608.243 73.7533V36.3898H621.363V73.1833C621.363 77.177 622.647 80.456 625.214 83.0233C627.781 85.5895 630.934 86.8742 634.673 86.8742C638.412 86.8742 641.55 85.5895 644.086 83.0233C646.621 80.456 647.889 77.177 647.889 73.1833V36.3898H661.104V73.7533C661.104 81.1697 658.552 87.222 653.45 91.9123Z" fill="white"/>
<path d="M74.2324 7.49005H64.9705V2.92541H38.5788V7.49005H29.3158V2.92541H2.94629V101.71C2.94629 104.679 3.54539 107.56 4.74159 110.285C6.29363 113.764 9.48415 116.978 13.9824 119.615C17.6384 121.742 22.1588 123.425 26.3907 124.246C41.9915 127.237 48.085 129.453 50.5669 133.043L51.7631 134.815L52.9814 133.043C55.4643 129.453 61.5578 127.237 77.1576 124.246C81.3674 123.425 85.8878 121.742 89.5659 119.615C94.0641 116.978 97.2557 113.764 98.7846 110.285C100.004 107.56 100.601 104.679 100.601 101.71V2.92541H74.2324V7.49005ZM99.1284 101.704C99.1284 104.454 98.5544 107.175 97.4436 109.691C94.3446 116.71 84.4162 121.339 76.8832 122.787C61.7056 125.704 54.6882 127.97 51.7721 132.213C48.856 127.97 41.8387 125.704 26.6611 122.787C19.1281 121.339 9.19967 116.71 6.10163 109.691C4.98987 107.175 4.4159 104.454 4.4159 101.704V27.3328H51.7671H99.1284V101.704ZM75.7031 4.40709H99.1284V8.97072V26.2934H4.4159V8.97072V4.40709H27.8412V8.97072H40.0595V4.40709H63.4848V8.97072H75.7031V4.40709Z" fill="white"/>
<path d="M4.4165 27.3318V101.703C4.4165 104.454 4.99048 107.174 6.10123 109.691C9.20028 116.709 19.1277 121.339 26.6617 122.786C41.8393 125.704 48.8566 127.969 51.7727 132.213C54.6888 127.969 61.7062 125.704 76.8838 122.786C84.4168 121.339 94.3452 116.709 97.4443 109.691C98.555 107.174 99.129 104.454 99.129 101.703V27.3318H51.7667H4.4165Z" fill="#1F3467"/>
<path d="M71.2852 -8.15791e-06V4.56463H67.8946V-8.15791e-06H35.6536V4.56463H32.241V-8.15791e-06H0V101.71C0 105.1 0.709678 108.379 2.06067 111.481C3.85597 115.515 7.46767 119.215 12.4977 122.141C16.4421 124.422 21.2953 126.24 25.8368 127.126C40.174 129.874 46.2234 131.934 48.1292 134.705L49.3476 136.477L51.7641 140L54.2007 136.477L55.3979 134.705C57.3249 131.934 63.3531 129.874 77.7114 127.126C82.2318 126.24 87.1071 124.422 91.0515 122.141C96.0816 119.215 99.6933 115.515 101.489 111.481C102.84 108.379 103.549 105.078 103.549 101.71V-8.15791e-06H71.2852ZM100.602 101.71C100.602 104.679 100.004 107.56 98.7846 110.285C97.2556 113.764 94.0641 116.978 89.5668 119.614C85.8878 121.741 81.3674 123.425 77.1576 124.245C61.5578 127.237 55.4642 129.452 52.9824 133.043L51.7641 134.815L50.5669 133.043C48.085 129.452 41.9915 127.237 26.3907 124.245C22.1588 123.425 17.6383 121.741 13.9824 119.614C9.48411 116.978 6.29359 113.764 4.74156 110.285C3.54536 107.56 2.94626 104.679 2.94626 101.71V2.92514H29.3158V7.48978H38.5788V2.92514H64.9705V7.48978H74.2324V2.92514H100.602V101.71Z" fill="#1F3467"/>
<path d="M63.4854 4.40663H40.0601V8.97026H27.8418V4.40663H4.4165V8.97026V26.293H99.129V8.97026V4.40663H75.7037V8.97026H63.4854V4.40663Z" fill="#E41D2D"/>
<path d="M15.7109 13.6054L13.6723 18.4806C13.5165 18.9018 13.2732 19.522 13.0069 20.3855L12.3203 18.4806L10.2817 13.6054H8.73071L12.254 22.1587H13.7608L17.284 13.6054H15.7109Z" fill="white"/>
<path d="M25.4164 20.8294V18.3034H30.2243V17.0177H25.4164V14.9349H30.5128V13.606H23.8875V22.1372H30.6897V20.8294H25.4164Z" fill="white"/>
<path d="M43.1879 19.6549C43.7418 19.4116 44.163 19.0125 44.4736 18.5029C44.7832 17.9933 44.939 17.4615 44.939 16.8624C44.939 15.9095 44.6063 15.1345 43.9639 14.5364C43.3206 13.9161 42.3908 13.6055 41.1715 13.6055H37.604V22.1367H39.1108V20.1203H40.3512C40.9946 20.1203 41.46 20.0982 41.7032 20.0982L43.1879 22.1367H45.0486L43.1879 19.6549ZM42.7889 18.2365C42.4119 18.6135 41.9023 18.7904 41.2599 18.7904H39.1108V14.9354H41.2821C41.9023 14.9354 42.4119 15.1123 42.7889 15.4893C43.1658 15.8431 43.3427 16.3085 43.3427 16.8624C43.3427 17.4163 43.1658 17.8827 42.7889 18.2365Z" fill="white"/>
<path d="M52.0293 22.1372H53.5582V13.606H52.0293V22.1372Z" fill="white"/>
<path d="M60.2947 13.606V14.9359H63.3083V22.1372H64.8372V14.9359H67.8287V13.606H60.2947Z" fill="white"/>
<path d="M77.9327 13.6055H76.4923L72.6594 22.1367H74.2105L74.8749 20.6741H79.5722L80.2377 22.1367H81.7887L77.9327 13.6055ZM75.4288 19.4558L76.4038 17.3057C76.6692 16.7297 76.9356 16.0432 77.2231 15.2671L77.3346 15.5778C77.4231 15.7989 77.5337 16.0653 77.6895 16.398C77.8443 16.7518 77.977 17.0403 78.0654 17.2836L79.0405 19.4558H75.4288Z" fill="white"/>
<path d="M94.5522 18.6357C94.3753 18.3251 94.131 18.0818 93.7983 17.8818C93.4887 17.6828 93.1559 17.528 92.8021 17.4164C92.4694 17.3058 92.0703 17.1731 91.627 17.0405C91.0068 16.8846 90.5414 16.7298 90.2539 16.575C89.9654 16.4202 89.8327 16.176 89.8327 15.8875C89.8327 15.6442 89.9212 15.4452 90.0981 15.2673C90.2981 15.1125 90.4972 15.0019 90.7183 14.9577C90.9405 14.8903 91.1616 14.8682 91.3616 14.8682C92.2482 14.8682 93.0675 15.0904 93.7983 15.5779L94.3974 14.4028C93.4887 13.7826 92.4915 13.473 91.3616 13.473C90.5193 13.473 89.7885 13.6941 89.1894 14.1153C88.5692 14.5365 88.2817 15.1346 88.2817 15.8875C88.2817 16.2202 88.347 16.5087 88.4586 16.7741C88.5913 17.0405 88.7471 17.2616 88.9461 17.4164C89.1231 17.5943 89.3663 17.7491 89.6769 17.8818C89.9875 18.0376 90.2539 18.1482 90.5193 18.2145C90.7636 18.2809 91.0732 18.3693 91.4501 18.4809C91.8271 18.5694 92.1145 18.6578 92.3136 18.7242C92.5357 18.7684 92.7348 18.879 92.9348 19.0569C93.1117 19.2338 93.2233 19.4338 93.2233 19.6771C93.2233 20.0541 93.0233 20.3415 92.6694 20.5637C92.2915 20.7848 91.8713 20.8954 91.3616 20.8954C90.3203 20.8954 89.3663 20.5637 88.5471 19.8983L87.949 21.0512C88.8356 21.8705 89.9654 22.2695 91.3616 22.2695C92.2915 22.2695 93.0896 22.0484 93.7772 21.6051C94.4637 21.1618 94.8185 20.5195 94.8185 19.6771C94.8185 19.3002 94.7301 18.9453 94.5522 18.6357Z" fill="white"/>
<path d="M92.4915 57.303C83.6054 65.0812 74.631 67.8727 73.7454 68.1391C74.9416 67.541 94.2868 57.8568 94.2868 47.2871C91.9376 50.2344 88.5028 53.9345 83.6718 57.3693C80.437 59.6964 77.335 61.3359 74.6752 62.5109C76.8022 61.4907 80.6803 59.2973 83.8939 54.9759C88.547 48.6833 88.7692 42.0359 88.7471 39.7531C86.5969 44.8052 82.9189 51.0104 76.4705 55.7298C75.6945 56.2837 74.9195 56.8154 74.1434 57.2808C75.5618 56.1952 78.5975 53.5143 80.1928 48.9266C82.6083 42.0138 79.861 36.0087 79.263 34.7673C79.3072 37.227 79.0629 41.6147 76.7801 46.3342C75.4733 49.0603 73.9002 51.0988 72.5924 52.5172C73.3011 50.943 74.1213 48.5064 74.1656 45.4707C74.2771 39.1108 70.8866 34.6346 69.7336 33.2383C70.3548 36.3625 70.8202 40.6397 70.1327 45.5813C69.8673 47.5314 69.4461 49.2814 69.0028 50.8546C69.0028 49.2151 68.7817 46.9323 67.7403 44.4504C65.169 38.2242 59.5187 35.6317 57.9898 34.9894C59.4302 37.5818 60.8928 40.706 62.0669 44.3841C62.5987 46.0024 62.9977 47.5314 63.3083 48.9718C62.5102 47.5977 60.6717 44.8495 57.2148 42.8109C52.8934 40.2406 48.6605 40.3512 47.0873 40.4628C53.3809 43.609 56.8599 47.7525 58.4994 50.0353C63.1304 56.4606 67.1191 67.4294 62.6881 76.5145C61.513 78.9079 60.0505 80.5926 59.0754 81.5897C58.8985 81.2791 58.7216 80.9685 58.5437 80.6589C58.3436 80.3483 58.1898 80.0156 58.0119 79.7281C58.3004 79.9271 58.5658 80.1714 58.8543 80.3704C59.2533 77.9328 58.9206 75.9606 57.6802 73.8336C58.2119 74.1884 58.7437 74.5432 59.2533 74.8971C58.7437 71.9719 57.2148 70.1334 55.0878 68.2939C56.0176 68.4266 56.9042 68.7151 57.8129 68.9362C55.907 65.812 52.9597 65.1697 49.6134 64.8812C50.3673 64.4158 51.1212 63.9504 51.8741 63.486C47.1094 63.0869 39.2658 62.6215 40.2851 69.6238C37.0272 70.5767 35.055 72.9691 37.7369 75.9385C37.7369 75.8058 37.6253 75.6731 37.7148 75.5404C38.911 73.9441 41.8804 74.2769 43.6525 74.2769C43.6757 74.2769 43.6757 74.2769 43.6757 74.3211C43.6757 74.4759 43.1881 74.8529 43.4093 75.075C43.4977 75.1413 43.9189 75.651 43.9631 75.9606C44.0295 76.2933 43.6978 76.9799 43.6083 77.0914C38.8225 82.6975 35.3877 91.4277 36.2522 98.8511C37.0715 97.6549 37.6927 96.3914 38.3571 95.1067C37.8917 97.7434 37.4926 100.336 36.5618 102.84C37.6032 102.573 38.2908 102.064 38.9552 101.2C36.5839 107.98 28.6508 111.592 28.8509 113.963C29.0509 113.764 29.2721 113.542 29.4711 113.343C29.6259 113.365 30.025 113.432 30.4683 113.277C30.8673 113.121 31.1337 112.878 31.2433 112.745C31.0895 113.542 30.9558 114.252 31.4433 114.938C31.7971 114.628 32.153 114.318 32.5068 114.008C33.4829 114.008 33.6146 113.055 34.1684 112.501C33.903 113.454 33.7261 114.186 34.4348 114.983C34.8781 114.607 35.3435 114.208 35.8089 113.831C35.9858 113.853 36.2291 113.853 36.3849 113.764C36.8503 113.564 37.1157 113.255 37.2715 112.767C38.3129 112.434 39.1995 112.457 40.1072 113.1C40.4178 113.321 40.5505 113.698 40.661 114.074C41.7919 112.634 41.0159 110.994 39.3985 110.551C37.759 108.779 41.038 104.657 42.191 103.173C42.2131 104.302 41.8361 105.055 41.2823 106.008C42.7448 105.41 43.7199 104.457 44.6939 103.173C47.1989 105.588 49.6134 107.958 52.5164 109.864C54.4002 109.709 55.9955 110.085 57.3696 110.839C54.7329 110.773 51.7857 110.197 50.6558 113.233C50.301 112.013 50.6116 111.128 51.3424 110.175C49.9904 109.288 47.4422 108.978 46.3123 109.665C44.318 110.883 43.8305 113.299 44.9382 114.938C45.293 115.47 45.7353 114.983 46.1133 115.071C45.8469 113.764 46.0238 112.523 47.021 111.726C47.5085 111.349 48.3288 111.349 48.3288 111.349C48.0181 111.614 47.7085 111.814 47.5306 112.213C47.0873 113.166 46.9546 114.429 47.8855 115.138C48.0403 115.271 48.3066 115.249 48.5057 115.227C55.3531 115.138 62.1785 115.183 69.0249 115.027C69.3577 115.027 69.8673 115.138 69.9779 114.695C70.1548 114.052 71.0635 113.277 71.0635 113.277C73.28 112.523 75.1185 111.881 76.3157 109.643C78.8639 100.491 67.0748 96.4799 74.6752 94.9067C74.5425 95.1952 74.255 95.3721 74.1434 95.7048C75.9609 95.7491 77.4455 94.6192 76.9359 92.5807C76.7369 91.7604 76.2041 90.9402 76.2262 90.0315C77.6898 86.5977 79.9053 87.9044 77.1128 83.4061C76.6695 82.6311 75.8282 85.7553 74.9416 86.3092C75.03 85.7332 75.2964 85.312 75.5839 84.8024C74.0329 85.6226 72.3713 85.9986 72.326 88.4583C72.2818 91.0517 75.6291 93.223 70.8866 93.0903C65.3911 98.4299 76.8474 100.225 74.1434 108.357C73.6338 109.022 72.9251 109.2 72.1491 109.088C71.5731 108.512 71.928 107.671 71.7953 106.939C70.8645 101.178 68.3384 96.6357 63.1525 94.1538C65.945 93.3114 68.1615 91.871 70 89.4997C67.8287 89.7219 65.7228 89.6997 63.5516 89.3228C68.0057 89.0564 71.9059 87.9929 74.1213 83.6725C71.3078 83.8716 68.7374 83.4725 66.0334 82.6975C74.3656 83.5167 85.0901 80.1493 87.6604 73.8778C81.7227 76.4481 74.8973 79.3069 68.4268 78.3761C75.7608 77.3568 86.996 74.1221 90.3644 65.3908C86.8854 68.3823 80.5034 72.1056 71.6395 72.5489C71.6395 72.5489 90.5635 68.3381 92.4915 57.303ZM41.7246 70.0228C41.6813 70.0007 41.6592 69.9776 41.614 69.9334C42.191 68.3381 43.0766 68.1833 44.6065 68.2054C43.6525 68.8256 42.6785 69.4237 41.7246 70.0228Z" fill="#FBD407"/>
<path d="M41.7219 70.0312C41.6877 70.0001 41.6545 69.9699 41.6204 69.9398C42.1893 68.3325 43.0819 68.1807 44.6159 68.2128C43.6509 68.819 42.6859 69.4241 41.7219 70.0312Z" fill="#1F3467"/>
<path d="M51.1758 53.3196L39.4189 54.7801L44.2288 57.8711L38.5203 57.5454L42.134 61.9764L36.8054 59.9027L38.8791 65.2313L34.4482 61.6175L34.7729 67.3261L31.6829 62.5162L30.2223 71.5098L28.7627 62.5162L25.6717 67.3261L25.9964 61.6175L21.5655 65.2313L23.6392 59.9027L18.3106 61.9764L21.9243 57.5454L16.2158 57.8701L21.0257 54.7801L9.2688 53.3196L21.0257 51.859L16.2158 48.769L21.9243 49.0937L18.3106 44.6627L23.6392 46.7365L21.5655 41.4079L25.9964 45.0216L25.6717 39.313L28.7627 44.1229L30.2223 35.1294L31.6829 44.1229L34.7739 39.313L34.4482 45.0216L38.8791 41.4079L36.8054 46.7365L42.134 44.6627L38.5213 49.0937L44.2288 48.769L39.4189 51.859L51.1758 53.3196Z" fill="white"/>
<path d="M34.7978 53.3198C34.7978 55.8469 32.7492 57.8955 30.2222 57.8955C27.6961 57.8955 25.6475 55.8469 25.6475 53.3198C25.6475 50.7927 27.6961 48.7441 30.2222 48.7441C32.7492 48.7441 34.7978 50.7927 34.7978 53.3198Z" fill="#1F3467"/>
</svg>
