<svg width="339" height="140" viewBox="0 0 339 140" fill="none" xmlns="http://www.w3.org/2000/svg">
<path d="M75.6951 4.40367H99.1215V8.96821V26.2915H4.40622V8.96821V4.40367H27.8313V8.96821H40.051V4.40367H63.4767V8.96821H75.6951V4.40367ZM99.1215 101.704C99.1215 104.454 98.5466 107.175 97.4358 109.691C94.3369 116.709 84.4085 121.34 76.8755 122.788C75.445 123.063 74.1559 123.328 72.8667 123.593C60.4795 126.146 54.4052 128.37 51.7635 132.214C50.3234 130.119 47.8704 128.508 43.9428 127.061C39.9154 125.576 34.336 124.264 26.6521 122.788C19.1179 121.34 9.18947 116.709 6.09059 109.691C4.97919 107.175 4.40622 104.454 4.40622 101.704V62.3998V46.1803V27.33H51.7578H99.1215V101.704ZM74.2281 7.4808H64.9603V2.93032H38.568V7.4808H29.3002V2.93032H2.92969V101.702C2.92969 104.673 3.53207 107.561 4.73747 110.284C6.27476 113.774 9.47531 116.996 13.9644 119.615C17.6426 121.734 22.1522 123.418 26.3701 124.228C41.9764 127.241 48.0866 129.464 50.5383 133.059L51.7642 134.826L52.9696 133.059C55.4424 129.464 61.5525 127.241 77.1582 124.228C81.3774 123.418 85.887 121.734 89.5646 119.615C94.053 116.996 97.2536 113.774 98.7908 110.284C99.9962 107.561 100.599 104.673 100.599 101.702V2.93032H74.2281V7.4808Z" fill="white"/>
<path d="M100.6 2.93006H74.2285V7.48118H64.9607V2.93006H38.5684V7.48118H29.3006V2.93006H2.93006V101.701C2.93006 104.672 3.53243 107.561 4.73784 110.284C6.27513 113.774 9.47568 116.996 13.9648 119.614C17.6424 121.734 22.1519 123.417 26.3705 124.227C41.9761 127.241 48.0869 129.464 50.5387 133.059L51.7645 134.825L52.9699 133.059C55.4428 129.464 61.5523 127.241 77.1586 124.227C81.3771 123.417 85.8867 121.734 89.5649 119.614C94.0534 116.996 97.2539 113.774 98.7912 110.284C99.9966 107.561 100.6 104.672 100.6 101.701V2.93006ZM103.529 1.96387e-06V101.701C103.529 105.088 102.844 108.372 101.472 111.468C99.6846 115.52 96.069 119.219 91.0402 122.15C87.0921 124.435 82.2289 126.243 77.6989 127.116C63.3601 129.879 57.3132 131.937 55.4012 134.722L54.1747 136.487L51.7645 140L49.3537 136.487L48.1279 134.722C46.2158 131.937 40.169 129.879 25.8097 127.116C21.2995 126.243 16.4376 124.435 12.4889 122.15C7.46007 119.219 3.84386 115.52 2.05654 111.468C0.685515 108.372 0 105.088 0 101.701V1.96387e-06H32.2511V4.55112H35.639V1.96387e-06H67.8907V4.55112H71.2773V1.96387e-06H103.529ZM76.8753 122.788C84.4089 121.34 94.3373 116.709 97.4362 109.692C98.5469 107.175 99.1212 104.454 99.1212 101.703V27.3297L72.8671 123.593C74.1556 123.328 75.4454 123.062 76.8753 122.788ZM51.7581 27.3297H99.1212L4.40595 46.18V27.3297H51.7581Z" fill="#00915B"/>
<path d="M4.40601 62.3996C4.72318 62.0818 5.00903 61.7442 5.34027 61.4353C21.0988 46.7403 45.7874 47.6036 60.4825 63.362C75.1775 79.1205 74.3162 103.809 58.5577 118.504C54.2317 122.538 49.2227 125.357 43.9426 127.06C47.8708 128.507 50.3239 130.119 51.7639 132.214C54.405 128.37 60.4799 126.146 72.8671 123.593L99.1212 27.3298L4.40601 46.1801V62.3996Z" fill="#FDB920"/>
<path d="M67.8281 13.6114V14.9204H64.8149V22.1317H63.2981V14.9204H60.2843V13.6114H67.8281ZM76.4936 13.6114H77.9273L81.7724 22.1317H80.2338L79.5688 20.6769H74.8731L74.1863 22.1317H72.6497L76.4936 13.6114ZM92.9113 19.0565C92.724 18.8896 92.5149 18.7649 92.3077 18.7022C92.0998 18.6606 91.8089 18.5782 91.4348 18.4739C91.0818 18.3703 90.7697 18.2872 90.4999 18.2041C90.2499 18.1414 89.9806 18.0167 89.6686 17.892C89.3572 17.7468 89.1071 17.5806 88.9204 17.4137C88.733 17.2481 88.5885 17.0402 88.4638 16.7697C88.3385 16.4999 88.2771 16.2089 88.2771 15.8975C88.2771 15.1282 88.5674 14.5463 89.1698 14.1102C89.7939 13.6945 90.5204 13.4867 91.3721 13.4867C92.4739 13.4867 93.4926 13.7776 94.3859 14.4005L93.804 15.5643C93.0559 15.1077 92.2456 14.8583 91.3721 14.8583C91.1445 14.8583 90.9155 14.8993 90.7077 14.9408C90.4794 15.0035 90.2921 15.1077 90.1053 15.274C89.918 15.4396 89.8137 15.6481 89.8137 15.8764C89.8137 16.1878 89.9595 16.4167 90.2499 16.583C90.5421 16.7288 90.998 16.874 91.6222 17.0402C92.0589 17.186 92.4535 17.3101 92.8071 17.4137C93.139 17.5179 93.4722 17.6848 93.804 17.8715C94.1155 18.0787 94.3655 18.3288 94.5522 18.6402C94.7185 18.9311 94.8016 19.2848 94.8016 19.6793C94.8016 20.5106 94.448 21.1546 93.7625 21.6124C93.0974 22.0486 92.2872 22.2768 91.3523 22.2768C89.9595 22.2768 88.8162 21.8612 87.9439 21.051L88.5258 19.8871C89.3572 20.5522 90.2921 20.8847 91.3721 20.8847C91.8498 20.8847 92.2872 20.7805 92.6613 20.5522C93.0143 20.3444 93.2017 20.0534 93.2017 19.6793C93.2017 19.4299 93.1185 19.2221 92.9113 19.0565ZM53.5519 22.1317H52.0351V13.6114H53.5519V22.1317ZM43.1822 22.1317L41.7063 20.095C41.4365 20.095 41.0004 20.1154 40.3353 20.1154H39.1095V22.1317H37.5926V13.6114H41.1666C42.372 13.6114 43.3069 13.9228 43.9509 14.5258C44.5955 15.1282 44.9274 15.918 44.9274 16.8529C44.9274 17.4552 44.7822 17.9956 44.4708 18.5155C44.1587 19.0143 43.7226 19.3884 43.1822 19.6589L45.0521 22.1317H43.1822ZM30.6934 22.1317H23.8773V13.6114H30.506V14.9204H25.4152V16.9987H30.2151V18.3077H25.4152V20.8221H30.6934V22.1317ZM13.7359 22.1522H12.2606L8.72755 13.6114H10.2859L12.3227 18.4739L12.9877 20.3859C13.2787 19.5342 13.5076 18.8896 13.6732 18.4739L15.7099 13.6114H17.269L13.7359 22.1522ZM63.4765 4.40364H40.0508V8.96755H27.8317V4.40364H4.40601V8.96755V26.2908H99.1219V8.96755V4.40364H75.6955V8.96755H63.4765V4.40364ZM43.328 16.8529C43.328 17.4137 43.1407 17.8715 42.7666 18.2456C42.3931 18.6197 41.8937 18.8064 41.2498 18.8064H39.1095V14.9204H41.2709C41.8937 14.9204 42.3931 15.1077 42.7666 15.4818C43.1407 15.8559 43.328 16.3125 43.328 16.8529ZM78.073 17.2896C77.9688 17.0402 77.8237 16.7493 77.6779 16.3956C77.5327 16.0631 77.408 15.7933 77.346 15.5854L77.2206 15.2529C76.9297 16.0427 76.6605 16.7288 76.39 17.2896L75.4129 19.4504H79.0291L78.073 17.2896ZM58.5577 118.504C54.2317 122.538 49.2227 125.357 43.9426 127.061C39.9158 125.576 34.3364 124.264 26.6519 122.788C19.1183 121.339 9.18989 116.709 6.09101 109.691C4.97961 107.175 4.40601 104.454 4.40601 101.703V62.3992C4.72318 62.082 5.00967 61.7437 5.34027 61.4355C21.0988 46.7398 45.7874 47.6031 60.4831 63.3616C75.1775 79.1201 74.3162 103.809 58.5577 118.504Z" fill="#0069B4"/>
<path d="M92.6613 20.5521C92.2872 20.781 91.8498 20.8852 91.3721 20.8852C90.2921 20.8852 89.3572 20.5521 88.5258 19.887L87.9439 21.0508C88.8162 21.861 89.9595 22.2773 91.3523 22.2773C92.2872 22.2773 93.0974 22.0484 93.7625 21.6123C94.448 21.1544 94.8016 20.5105 94.8016 19.6798C94.8016 19.2846 94.7185 18.9316 94.5522 18.64C94.3655 18.3286 94.1155 18.0792 93.804 17.8714C93.4722 17.6847 93.139 17.5178 92.8071 17.4142C92.4535 17.3106 92.0589 17.1859 91.6222 17.0401C90.998 16.8738 90.5421 16.7287 90.2499 16.5835C89.9595 16.4172 89.8137 16.1883 89.8137 15.8769C89.8137 15.6479 89.918 15.4401 90.1053 15.2745C90.2921 15.1076 90.4794 15.0034 90.7077 14.9413C90.9155 14.8998 91.1445 14.8582 91.3721 14.8582C92.2456 14.8582 93.0559 15.1076 93.804 15.5648L94.386 14.401C93.4926 13.7775 92.4739 13.4872 91.3721 13.4872C90.5203 13.4872 89.7939 13.695 89.1698 14.1107C88.5674 14.5468 88.2771 15.1287 88.2771 15.8973C88.2771 16.2088 88.3385 16.5004 88.4638 16.7702C88.5885 17.0401 88.733 17.2479 88.9204 17.4142C89.1071 17.5804 89.3572 17.7473 89.6686 17.8925C89.9806 18.0165 90.2499 18.1412 90.4999 18.2039C90.7697 18.287 91.0818 18.3702 91.4348 18.4744C91.8089 18.578 92.0998 18.6605 92.3077 18.7027C92.5149 18.7654 92.724 18.8894 92.9113 19.0563C93.1185 19.222 93.2017 19.4304 93.2017 19.6798C93.2017 20.0533 93.0143 20.3442 92.6613 20.5521ZM75.4129 19.4509H79.0291L78.0737 17.2895C77.9688 17.0401 77.8237 16.7498 77.6779 16.3961C77.5327 16.0636 77.408 15.7937 77.346 15.5853L77.2206 15.2534C76.9297 16.0425 76.6605 16.7287 76.39 17.2895L75.4129 19.4509ZM74.1863 22.1315H72.6497L76.4936 13.6112H77.9272L81.7724 22.1315H80.2338L79.5688 20.6767H74.8731L74.1863 22.1315ZM60.2842 14.9202H63.2981V22.1315H64.8149V14.9202H67.8281V13.6112H60.2842V14.9202ZM52.0351 22.1315H53.5519V13.6112H52.0351V22.1315ZM43.328 16.8527C43.328 16.313 43.1407 15.8558 42.7666 15.4817C42.3931 15.1076 41.8937 14.9202 41.2709 14.9202H39.1094V18.8069H41.2498C41.8937 18.8069 42.3931 18.6196 42.7666 18.2455C43.1407 17.8714 43.328 17.4142 43.328 16.8527ZM43.1822 19.6594L45.0521 22.1315H43.1822L41.7063 20.0948C41.4371 20.0948 41.0004 20.1159 40.3353 20.1159H39.1094V22.1315H37.5926V13.6112H41.1666C42.372 13.6112 43.3069 13.9233 43.9509 14.5257C44.5955 15.1287 44.9273 15.9184 44.9273 16.8527C44.9273 17.4557 44.7822 17.9954 44.4708 18.5153C44.1587 19.0148 43.7226 19.3882 43.1822 19.6594ZM25.4152 18.3081H30.215V16.9985H25.4152V14.9202H30.506V13.6112H23.8772V22.1315H30.6934V20.8225H25.4152V18.3081ZM15.7099 13.6112H17.269L13.7359 22.1526H12.2613L8.72754 13.6112H10.2859L12.3226 18.4744L12.9877 20.3858C13.2787 19.534 13.5076 18.8894 13.6732 18.4744L15.7099 13.6112Z" fill="white"/>
<path d="M177.314 91.9129C172.212 96.6047 165.952 98.9478 158.539 98.9478C151.123 98.9478 144.864 96.6188 139.761 91.9609C134.66 87.3023 132.108 81.2338 132.108 73.7545V36.3922H145.228V73.1841C145.228 77.1776 146.512 80.4575 149.078 83.0236C151.646 85.5911 154.798 86.8739 158.539 86.8739C162.277 86.8739 165.413 85.5911 167.949 83.0236C170.484 80.4575 171.752 77.1776 171.752 73.1841V36.3922H184.968V73.7545C184.968 81.1698 182.416 87.2231 177.314 91.9129Z" fill="white"/>
<path d="M197.326 97.9976V36.3922H211.858L227.939 60.6192C229.235 62.5734 230.755 64.8621 232.497 67.4865C234.24 70.1096 235.658 72.2441 236.749 73.8882L238.49 76.5126V36.3922H251.802V97.9976H237.732L222.294 74.9459C220.635 72.4744 218.82 69.7636 216.848 66.815C214.876 63.8671 213.307 61.5247 212.144 59.7879L210.635 57.2127V97.9976H197.326Z" fill="white"/>
<path d="M265.111 36.3922H278.42V97.9976H265.111V36.3922Z" fill="white"/>
<path d="M298.671 97.9976L323.063 47.8004H290.74V36.3922H338.03V44.3779L312.645 97.9976H298.671Z" fill="white"/>
</svg>
