<svg width="514" height="140" viewBox="0 0 514 140" fill="none" xmlns="http://www.w3.org/2000/svg">
<path d="M175.831 91.897C170.729 96.5887 164.472 98.9307 157.056 98.9307C149.64 98.9307 143.381 96.6026 138.28 91.9435C133.179 87.2865 130.628 81.2181 130.628 73.7394V36.3796H143.748V73.1695C143.748 77.1626 145.032 80.4421 147.597 83.008C150.163 85.5749 153.316 86.8583 157.056 86.8583C160.795 86.8583 163.932 85.5749 166.468 83.008C169.002 80.4421 170.27 77.1626 170.27 73.1695V36.3796H183.485V73.7394C183.485 81.1556 180.931 87.2072 175.831 91.897Z" fill="white"/>
<path d="M195.842 97.981V36.3794H210.374L226.453 60.6043C227.749 62.5597 229.27 64.8482 231.011 67.4715C232.753 70.0949 234.172 72.2287 235.263 73.8729L237.005 76.4973V36.3794H250.314V97.981H236.245L220.809 74.9304C219.151 72.4596 217.335 69.7481 215.364 66.7996C213.391 63.8531 211.823 61.5102 210.659 59.7738L209.151 57.199V97.981H195.842Z" fill="white"/>
<path d="M263.622 36.3789H276.931V97.9805H263.622V36.3789Z" fill="white"/>
<path d="M290.241 97.981V36.3794H336.254V47.7877H303.551V60.3358H331.5V71.648H303.551V97.981H290.241Z" fill="white"/>
<path d="M354.005 77.7327H376.379L371.575 66.2282L364.985 50.4403C362.821 56.7832 360.786 62.1093 358.879 66.4195L354.005 77.7327ZM331.594 97.9814L358.264 36.3789H371.617L397.583 97.9814H384.831L380.745 88.1896H349.499L345.28 97.9814H331.594Z" fill="white"/>
<path d="M405.555 97.981V36.3794H454.133V47.7877H418.864V60.3358H452.327V71.648H418.864V86.5726H455.37V97.981H405.555Z" fill="white"/>
<path d="M464.874 97.981V36.3794H478.183V86.5726H513.738V97.981H464.874Z" fill="white"/>
<path d="M75.6821 4.4122H99.1053V8.97513V26.2972H4.40165V8.97513V4.4122H27.8248V8.97513H40.0419V4.4122H63.4651V8.97513H75.6821V4.4122ZM99.1053 101.7C99.1053 104.451 98.5315 107.171 97.4205 109.688C94.3224 116.705 84.3947 121.334 76.8625 122.782C61.6861 125.699 54.6692 127.963 51.7535 132.207C48.8377 127.963 41.8209 125.699 26.6445 122.782C19.1122 121.334 9.1846 116.705 6.08648 109.688C4.97548 107.171 4.40165 104.451 4.40165 101.7V27.3359H51.7485H99.1053V101.7ZM74.2044 7.49049H64.9368V2.93648H38.5701V7.49049H29.3025V2.93648H2.91602V101.71C2.91602 104.666 3.53544 107.562 4.73366 110.278C6.27181 113.754 9.46804 116.99 13.9616 119.606C17.6375 121.723 22.1509 123.421 26.366 124.241C41.9656 127.237 48.0786 129.454 50.5344 133.049L51.7535 134.807L52.9715 133.049C55.4284 129.454 61.5404 127.237 77.141 124.241C81.3551 123.421 85.8694 121.723 89.5453 119.606C94.0389 116.99 97.2351 113.754 98.7733 110.278C99.9715 107.562 100.591 104.666 100.591 101.71V2.93648H74.2044V7.49049Z" fill="white"/>
<path d="M4.40137 27.3354V101.7C4.40137 104.45 4.9752 107.171 6.0862 109.687C9.18432 116.704 19.112 121.333 26.6442 122.781C41.8206 125.699 48.8374 127.964 51.7532 132.207C54.67 127.964 61.6868 125.699 76.8622 122.781C84.3954 121.333 94.3221 116.704 97.4202 109.687C98.5322 107.171 99.106 104.45 99.106 101.7V27.3354H51.7482H4.40137Z" fill="#B0B0B0"/>
<path d="M100.591 101.71C100.591 104.666 99.9713 107.562 98.773 110.278C97.2349 113.754 94.0396 116.99 89.5451 119.607C85.8692 121.723 81.3558 123.422 77.1407 124.241C61.5411 127.237 55.4291 129.454 52.9723 133.05L51.7532 134.807L50.5352 133.05C48.0783 129.454 41.9663 127.237 26.3657 124.241C22.1516 123.422 17.6373 121.723 13.9623 119.607C9.4678 116.99 6.27156 113.754 4.7334 110.278C3.53518 107.562 2.91576 104.666 2.91576 101.71V2.93656H29.3023V7.49058H38.5709V2.93656H64.9366V7.49058H74.2042V2.93656H100.591V101.71ZM71.2686 -3.91019e-06V4.57482H67.8731V-3.91019e-06H35.6343V4.57482H32.2388V-3.91019e-06H0V101.71C0 105.085 0.678894 108.382 2.05749 111.477C3.83449 115.512 7.44995 119.207 12.4836 122.144C16.439 124.42 21.2924 126.238 25.8067 127.117C40.1685 129.873 46.221 131.931 48.1179 134.708L49.337 136.465L51.7532 140L54.1705 136.465L55.3885 134.708C57.2864 131.931 63.339 129.873 77.6997 127.117C82.2141 126.238 87.0684 124.42 91.0228 122.144C96.0565 119.207 99.672 115.512 101.45 111.477C102.828 108.382 103.507 105.085 103.507 101.71V-3.91019e-06H71.2686Z" fill="#B0B0B0"/>
<path d="M63.4653 4.41233H40.0421V8.97526H27.825V4.41233H4.40186V8.97526V26.2974H99.1055V8.97526V4.41233H75.6823V8.97526H63.4653V4.41233Z" fill="#026838"/>
<path d="M15.6998 13.6231L13.6621 18.4972C13.5025 18.8966 13.2627 19.5359 12.9832 20.3942L12.3242 18.4972L10.2865 13.6231H8.72852L12.2439 22.1523H13.7424L17.2578 13.6231H15.6998Z" fill="white"/>
<path d="M25.4073 20.8337V18.3174H30.2012V17.0191H25.4073V14.9417H30.5005V13.6226H23.8691V22.1519H30.6808V20.8337H25.4073Z" fill="white"/>
<path d="M42.7648 18.2569C42.3852 18.6167 41.8857 18.7961 41.2465 18.7961H39.1097V14.9408H41.2663C41.8857 14.9408 42.3852 15.1211 42.7648 15.4809C43.1444 15.8595 43.3238 16.3193 43.3238 16.8783C43.3238 17.4185 43.1444 17.8773 42.7648 18.2569ZM43.1642 19.6553C43.7232 19.3957 44.1632 19.0161 44.4625 18.5166C44.7618 17.9972 44.9224 17.4581 44.9224 16.8783C44.9224 15.9199 44.6023 15.141 43.9432 14.5215C43.3039 13.9229 42.3654 13.6226 41.1672 13.6226H37.5715V22.1519H39.1097V20.1142H40.3277C40.9868 20.1142 41.4467 20.1142 41.6865 20.0944L43.1642 22.1519H45.0423L43.1642 19.6553Z" fill="white"/>
<path d="M52.0129 22.1519H53.5511V13.6226H52.0129V22.1519Z" fill="white"/>
<path d="M60.2822 13.6231V14.9412H63.2783V22.1523H64.8164V14.9412H67.8125V13.6231H60.2822Z" fill="white"/>
<path d="M75.4032 19.4556L76.3824 17.298C76.6421 16.7391 76.9215 16.0602 77.201 15.2614L77.321 15.6003C77.4002 15.8005 77.5202 16.08 77.6599 16.4199C77.8205 16.7391 77.9404 17.0384 78.0603 17.298L79.0187 19.4556H75.4032ZM77.9196 13.6231H76.4815L72.6272 22.1523H74.1852L74.8442 20.6737H79.5578L80.2169 22.1523H81.7749L77.9196 13.6231Z" fill="white"/>
<path d="M94.5187 18.6362C94.3591 18.3369 94.0995 18.0772 93.7793 17.877C93.4602 17.6778 93.1203 17.5381 92.7813 17.4182C92.4414 17.3181 92.042 17.1783 91.6019 17.0386C90.9835 16.8988 90.5236 16.7383 90.2441 16.5787C89.9448 16.4192 89.8051 16.1793 89.8051 15.88C89.8051 15.6402 89.9042 15.44 90.0846 15.2804C90.264 15.1208 90.4642 15.0207 90.6832 14.9613C90.9032 14.9008 91.1232 14.8612 91.3423 14.8612C92.2214 14.8612 93.041 15.101 93.7793 15.5797L94.3789 14.4013C93.48 13.8027 92.4612 13.4826 91.3423 13.4826C90.5038 13.4826 89.7645 13.7026 89.1659 14.1218C88.5662 14.5411 88.2471 15.1407 88.2471 15.8998C88.2471 16.219 88.3264 16.5193 88.4463 16.7789C88.5662 17.0386 88.7258 17.2576 88.9062 17.4182C89.1054 17.5975 89.3452 17.7373 89.6445 17.8969C89.9647 18.0366 90.2441 18.1367 90.484 18.217C90.7437 18.2764 91.0628 18.3765 91.4225 18.4766C91.8021 18.5757 92.1014 18.656 92.3016 18.7165C92.5008 18.7759 92.701 18.8959 92.9012 19.0554C93.1004 19.2358 93.2005 19.435 93.2005 19.6947C93.2005 20.0544 93.0003 20.3537 92.6406 20.5738C92.262 20.7938 91.8418 20.8929 91.3423 20.8929C90.2838 20.8929 89.3452 20.5738 88.5266 19.8949L87.927 21.0534C88.8061 21.8721 89.9448 22.2715 91.3423 22.2715C92.262 22.2715 93.0806 22.0515 93.7595 21.6124C94.4384 21.1526 94.7783 20.5133 94.7783 19.6947C94.7783 19.2953 94.6981 18.9355 94.5187 18.6362Z" fill="white"/>
<path d="M42.926 58.8939L83.15 58.9137L89.6208 39.1199H41.263C30.9528 39.1199 22.593 47.4787 22.593 57.7899V76.2021C22.593 76.2021 26.2372 58.8939 42.926 58.8939Z" fill="#026838"/>
<path d="M42.8938 80.7519C42.9186 80.7548 68.6401 80.6973 68.6401 80.6973L74.8443 61.7053L42.6698 61.6914C26.5846 61.6914 22.5935 77.8044 22.5935 79.5447V96.7528L22.5925 96.7588C23.7937 87.0224 32.3279 80.7519 42.8938 80.7519Z" fill="#026838"/>
<path d="M42.6366 83.5185C31.9676 83.5185 24.8339 88.5473 22.9934 97.6147C22.9934 97.6147 22.593 99.4551 22.593 100.41C22.593 103.95 25.4632 106.82 29.0043 106.82H49.1282L56.7764 83.4759L42.6366 83.5185Z" fill="#026838"/>
</svg>
